<svg xmlns="http://www.w3.org/2000/svg" xmlns:xlink="http://www.w3.org/1999/xlink" width="500" zoomAndPan="magnify" viewBox="0 0 375 374.999991" height="500" preserveAspectRatio="xMidYMid meet" version="1.0"><defs><g/><clipPath id="769da14c13"><path d="M 152.761719 105.914062 L 222.4375 105.914062 L 222.4375 165.136719 L 152.761719 165.136719 Z M 152.761719 105.914062 " clip-rule="nonzero"/></clipPath></defs><g clip-path="url(#769da14c13)"><path fill="#267a9c" d="M 156.027344 135.527344 L 171.808594 150.855469 L 170.175781 152.441406 L 152.761719 135.527344 L 170.179688 118.613281 L 171.816406 120.203125 Z M 193.046875 105.925781 L 195.222656 106.457031 L 182.152344 165.125 L 179.976562 164.59375 Z M 205.019531 118.613281 L 222.4375 135.527344 L 205.019531 152.441406 L 203.382812 150.855469 L 219.167969 135.527344 L 203.382812 120.203125 Z M 205.019531 118.613281 " fill-opacity="1" fill-rule="nonzero"/></g><g fill="#000000" fill-opacity="1"><g transform="translate(62.963885, 211.465767)"><g><path d="M 25.082031 -5.828125 L 9.835938 -5.828125 L 9.835938 -14.3125 L 24.21875 -14.3125 L 24.21875 -19.71875 L 9.835938 -19.71875 L 9.835938 -27.832031 L 25.082031 -27.832031 L 25.082031 -33.636719 L 2.796875 -33.636719 L 2.796875 0 L 25.082031 0 Z M 25.082031 -5.828125 "/></g></g></g><g fill="#000000" fill-opacity="1"><g transform="translate(90.325001, 211.465767)"><g><path d="M 2.214844 0 L 9.019531 0 L 9.019531 -15.082031 C 9.019531 -17.878906 10.769531 -19.835938 13.355469 -19.835938 C 15.875 -19.835938 17.390625 -18.25 17.390625 -15.570312 L 17.390625 0 L 23.9375 0 L 23.9375 -15.175781 C 23.9375 -17.949219 25.640625 -19.835938 28.226562 -19.835938 C 30.863281 -19.835938 32.308594 -18.25 32.308594 -15.359375 L 32.308594 0 L 39.113281 0 L 39.113281 -17.0625 C 39.113281 -22.097656 35.828125 -25.453125 30.929688 -25.453125 C 27.273438 -25.453125 24.289062 -23.472656 23.167969 -20.324219 L 23.03125 -20.324219 C 22.191406 -23.589844 19.671875 -25.453125 16.058594 -25.453125 C 12.65625 -25.453125 9.976562 -23.472656 8.925781 -20.464844 L 8.789062 -20.464844 L 8.789062 -24.988281 L 2.214844 -24.988281 Z M 2.214844 0 "/></g></g></g><g fill="#000000" fill-opacity="1"><g transform="translate(131.529817, 211.465767)"><g><path d="M 2.214844 0 L 9.019531 0 L 9.019531 -13.960938 C 9.019531 -17.480469 10.980469 -19.535156 14.335938 -19.535156 C 15.3125 -19.535156 16.246094 -19.371094 16.804688 -19.136719 L 16.804688 -25.128906 C 16.339844 -25.265625 15.664062 -25.382812 14.871094 -25.382812 C 11.933594 -25.382812 9.8125 -23.660156 8.925781 -20.488281 L 8.789062 -20.488281 L 8.789062 -24.988281 L 2.214844 -24.988281 Z M 2.214844 0 "/></g></g></g><g fill="#000000" fill-opacity="1"><g transform="translate(148.892712, 211.465767)"><g><path d="M 13.425781 -20.488281 C 16.457031 -20.488281 18.53125 -18.296875 18.671875 -15.105469 L 8.066406 -15.105469 C 8.296875 -18.226562 10.441406 -20.488281 13.425781 -20.488281 Z M 18.765625 -7.644531 C 18.132812 -5.734375 16.222656 -4.5 13.730469 -4.5 C 10.257812 -4.5 7.996094 -6.945312 7.996094 -10.511719 L 7.996094 -10.933594 L 25.21875 -10.933594 L 25.21875 -13.007812 C 25.21875 -20.605469 20.628906 -25.523438 13.355469 -25.523438 C 5.96875 -25.523438 1.304688 -20.347656 1.304688 -12.378906 C 1.304688 -4.382812 5.921875 0.535156 13.613281 0.535156 C 19.789062 0.535156 24.265625 -2.75 25.011719 -7.644531 Z M 18.765625 -7.644531 "/></g></g></g><g fill="#000000" fill-opacity="1"><g transform="translate(175.391516, 211.465767)"><g/></g></g><g fill="#000000" fill-opacity="1"><g transform="translate(184.830408, 211.465767)"><g><path d="M 17.878906 0 L 17.878906 -27.832031 L 27.621094 -27.832031 L 27.621094 -33.636719 L 1.117188 -33.636719 L 1.117188 -27.832031 L 10.839844 -27.832031 L 10.839844 0 Z M 17.878906 0 "/></g></g></g><g fill="#000000" fill-opacity="1"><g transform="translate(213.543265, 211.465767)"><g><path d="M 25.289062 -24.988281 L 18.484375 -24.988281 L 18.484375 -10.675781 C 18.484375 -7.367188 16.597656 -5.199219 13.566406 -5.199219 C 10.558594 -5.199219 8.902344 -6.96875 8.902344 -10.300781 L 8.902344 -24.988281 L 2.097656 -24.988281 L 2.097656 -8.878906 C 2.097656 -3.054688 5.6875 0.464844 11.09375 0.464844 C 14.871094 0.464844 17.34375 -1.351562 18.578125 -4.5 L 18.71875 -4.5 L 18.71875 0 L 25.289062 0 Z M 25.289062 -24.988281 "/></g></g></g><g fill="#000000" fill-opacity="1"><g transform="translate(241.044217, 211.465767)"><g><path d="M 2.214844 0 L 9.019531 0 L 9.019531 -13.960938 C 9.019531 -17.480469 10.980469 -19.535156 14.335938 -19.535156 C 15.3125 -19.535156 16.246094 -19.371094 16.804688 -19.136719 L 16.804688 -25.128906 C 16.339844 -25.265625 15.664062 -25.382812 14.871094 -25.382812 C 11.933594 -25.382812 9.8125 -23.660156 8.925781 -20.488281 L 8.789062 -20.488281 L 8.789062 -24.988281 L 2.214844 -24.988281 Z M 2.214844 0 "/></g></g></g><g fill="#000000" fill-opacity="1"><g transform="translate(258.407123, 211.465767)"><g><path d="M 11.863281 -4.523438 C 9.558594 -4.523438 8.019531 -5.6875 8.019531 -7.550781 C 8.019531 -9.324219 9.464844 -10.464844 12.003906 -10.652344 L 17.273438 -10.980469 L 17.273438 -9.160156 C 17.273438 -6.457031 14.824219 -4.523438 11.863281 -4.523438 Z M 9.625 0.394531 C 12.75 0.394531 15.851562 -1.164062 17.25 -3.824219 L 17.390625 -3.824219 L 17.390625 0 L 23.960938 0 L 23.960938 -17.179688 C 23.960938 -22.214844 19.789062 -25.523438 13.378906 -25.523438 C 6.757812 -25.523438 2.632812 -22.191406 2.378906 -17.34375 L 8.601562 -17.34375 C 8.925781 -19.183594 10.535156 -20.441406 13.078125 -20.441406 C 15.640625 -20.441406 17.273438 -19.089844 17.273438 -16.757812 L 17.273438 -15.105469 L 10.980469 -14.730469 C 4.753906 -14.359375 1.257812 -11.722656 1.257812 -7.179688 C 1.257812 -2.679688 4.871094 0.394531 9.625 0.394531 Z M 9.625 0.394531 "/></g></g></g><g fill="#000000" fill-opacity="1"><g transform="translate(284.533022, 211.465767)"><g><path d="M 2.214844 0 L 9.019531 0 L 9.019531 -14.335938 C 9.019531 -17.574219 10.957031 -19.8125 14.007812 -19.8125 C 17.0625 -19.8125 18.601562 -17.949219 18.601562 -14.683594 L 18.601562 0 L 25.40625 0 L 25.40625 -16.105469 C 25.40625 -21.957031 22.285156 -25.453125 16.734375 -25.453125 C 12.890625 -25.453125 10.257812 -23.636719 8.925781 -20.535156 L 8.789062 -20.535156 L 8.789062 -24.988281 L 2.214844 -24.988281 Z M 2.214844 0 "/></g></g></g><path fill="#e0edf3" d="M 159.941406 225.480469 L 214.878906 225.480469 C 218.273438 225.480469 221.53125 226.832031 223.933594 229.234375 C 226.335938 231.636719 227.6875 234.894531 227.6875 238.292969 L 227.6875 263.921875 C 227.6875 267.320312 226.335938 270.582031 223.933594 272.984375 C 221.53125 275.386719 218.273438 276.738281 214.878906 276.738281 L 159.941406 276.738281 C 152.867188 276.738281 147.132812 271 147.132812 263.921875 L 147.132812 238.292969 C 147.132812 234.894531 148.480469 231.636719 150.882812 229.234375 C 153.285156 226.832031 156.542969 225.480469 159.941406 225.480469 " fill-opacity="1" fill-rule="nonzero"/><g fill="#267a9c" fill-opacity="1"><g transform="translate(160.216256, 261.983947)"><g><path d="M 7.828125 0.269531 C 10.335938 0.269531 12.304688 -1.046875 13.128906 -2.921875 L 13.207031 -2.921875 L 13.207031 0 L 17.78125 0 L 17.78125 -22.90625 L 13.144531 -22.90625 L 13.144531 -14.097656 L 13.050781 -14.097656 C 12.222656 -15.988281 10.320312 -17.289062 7.859375 -17.289062 C 3.585938 -17.289062 0.890625 -13.9375 0.890625 -8.539062 C 0.890625 -3.09375 3.570312 0.269531 7.828125 0.269531 Z M 9.398438 -13.574219 C 11.699219 -13.574219 13.175781 -11.605469 13.175781 -8.507812 C 13.175781 -5.398438 11.699219 -3.460938 9.398438 -3.460938 C 7.066406 -3.460938 5.636719 -5.382812 5.636719 -8.507812 C 5.636719 -11.621094 7.066406 -13.574219 9.398438 -13.574219 Z M 9.398438 -13.574219 "/></g></g></g><g fill="#267a9c" fill-opacity="1"><g transform="translate(179.58126, 261.983947)"><g><path d="M 9.144531 -13.953125 C 11.207031 -13.953125 12.621094 -12.460938 12.714844 -10.289062 L 5.492188 -10.289062 C 5.652344 -12.414062 7.113281 -13.953125 9.144531 -13.953125 Z M 12.78125 -5.207031 C 12.351562 -3.90625 11.050781 -3.0625 9.351562 -3.0625 C 6.984375 -3.0625 5.445312 -4.730469 5.445312 -7.160156 L 5.445312 -7.445312 L 17.175781 -7.445312 L 17.175781 -8.859375 C 17.175781 -14.035156 14.050781 -17.382812 9.097656 -17.382812 C 4.0625 -17.382812 0.890625 -13.859375 0.890625 -8.429688 C 0.890625 -2.984375 4.03125 0.363281 9.269531 0.363281 C 13.476562 0.363281 16.527344 -1.875 17.035156 -5.207031 Z M 12.78125 -5.207031 "/></g></g></g><g fill="#267a9c" fill-opacity="1"><g transform="translate(197.628809, 261.983947)"><g><path d="M 17.066406 -17.019531 L 12.222656 -17.019531 L 8.699219 -4.097656 L 8.605469 -4.097656 L 5.0625 -17.019531 L 0.09375 -17.019531 L 5.984375 0 L 11.222656 0 Z M 17.066406 -17.019531 "/></g></g></g></svg>